<svg width="24" height="24" viewBox="0 0 52 49" fill="none" xmlns="http://www.w3.org/2000/svg">
<path d="M26.4755 2.93566L30.7211 16.002C31.3235 17.8561 33.0513 19.1115 35.0008 19.1115H48.7396C48.8997 19.1115 48.9869 19.1567 49.0427 19.1999C49.1108 19.2525 49.1771 19.34 49.2151 19.4569C49.2531 19.5739 49.2509 19.6836 49.2268 19.7662C49.207 19.8341 49.1631 19.9218 49.0335 20.016L37.9186 28.0914C36.3414 29.2373 35.6814 31.2685 36.2839 33.1226L40.5294 46.1889C40.5789 46.3412 40.5628 46.4381 40.5389 46.5046C40.5099 46.5856 40.4472 46.6757 40.3477 46.748C40.2482 46.8203 40.1432 46.852 40.0572 46.8546C39.9865 46.8567 39.8895 46.8421 39.76 46.748L28.645 38.6725C27.0678 37.5266 24.9322 37.5266 23.355 38.6725L12.24 46.748C12.1105 46.8421 12.0134 46.8567 11.9428 46.8546C11.8568 46.852 11.7518 46.8203 11.6523 46.748C11.5528 46.6757 11.4901 46.5856 11.4611 46.5046C11.4372 46.4381 11.4211 46.3413 11.4706 46.1889L15.7161 33.1226C16.3186 31.2685 15.6586 29.2373 14.0814 28.0914L2.9665 20.016C2.83694 19.9218 2.79303 19.8341 2.77323 19.7662C2.74911 19.6836 2.74686 19.5739 2.78487 19.4569C2.82287 19.34 2.88918 19.2525 2.95725 19.1999C3.01314 19.1567 3.10026 19.1115 3.2604 19.1115H16.9992C18.9487 19.1115 20.6765 17.8561 21.2789 16.002L25.5245 2.93565C25.574 2.78335 25.6439 2.71447 25.7022 2.67467C25.7734 2.62621 25.877 2.59017 26 2.59017C26.123 2.59017 26.2266 2.62621 26.2978 2.67468C26.3561 2.71447 26.426 2.78335 26.4755 2.93566Z" fill="white" stroke="#CDCDCD" stroke-width="4"/>
</svg>
